#!OML:ASF E:\Steps\Project 1\Capture day 1\Session 2\Subject.ASF
:FULLY-SPECIFIED
:DEGREES
89
root 7.109 16.2903 31.0569 -153.908 -3.80303 178.428
lowerback -29.0674 -1.79507 -6.15079
upperback -0.99421 -0.930439 0.300726
thorax 14.3466 -1.0669 3.25901
lowerneck -2.28283 -3.7185 -0.9633
upperneck 17.5952 -6.7406 3.15845
head 5.83013 -3.57511 0.719113
rclavicle 9.24349e-015 -1.43125e-014
rhumerus -37.6229 -24.4797 -73.8985
rradius 29.2006
rwrist 5.12943
rhand -7.64198 -56.2797
rfingers 7.12502
rthumb 18.2533 -85.4433
lclavicle 9.24349e-015 -1.43125e-014
lhumerus -30.1477 11.7457 78.0842
lradius 17.6721
lwrist -8.78805
lhand -21.5104 -13.2562
lfingers 7.12502
lthumb 4.88148 16.6675
rfemur -22.3526 6.15082 19.8
rtibia 6.36856
rfoot -19.8659 -8.52486
rtoes -32.1523
lfemur -23.3292 -8.57498 -19.455
ltibia 9.16915
lfoot -10.0422 4.04545
ltoes -31.6671
90
root 7.11268 16.2908 31.0572 -153.847 -3.82076 178.446
lowerback -29.069 -1.77869 -6.11638
upperback -1.05918 -0.930153 0.28438
thorax 14.2708 -1.06474 3.22174
lowerneck -3.11043 -3.25874 -0.55567
upperneck 18.1168 -6.15797 3.11058
head 6.11054 -3.25246 0.644895
rclavicle -9.96408e-015 -1.11319e-014
rhumerus -37.6679 -24.277 -74.0384
rradius 29.3712
rwrist 4.9355
rhand -7.77134 -56.2071
rfingers 7.12502
rthumb 18.1288 -85.3823
lclavicle -9.96408e-015 -1.11319e-014
lhumerus -30.1219 11.5656 78.178
lradius 17.8855
lwrist -8.71924
lhand -21.3891 -13.179
lfingers 7.12502
lthumb 4.99861 16.742
rfemur -22.4376 6.34354 19.7786
rtibia 6.35667
rfoot -19.7898 -8.70855
rtoes -32.2526
lfemur -23.4308 -8.52543 -19.403
ltibia 9.20784
lfoot -9.99433 4.01847
ltoes -32.2383
91
root 7.11554 16.2875 31.0566 -153.82 -3.80785 178.385
lowerback -29.0531 -1.79277 -6.16882
upperback -1.10326 -0.938997 0.273884
thorax 14.2127 -1.07204 3.235
lowerneck -3.13175 -3.24908 -0.476048
upperneck 18.2431 -6.15107 2.98927
head 6.14806 -3.25561 0.591584
rclavicle 1.46604e-015 -1.49089e-014
rhumerus -37.6797 -24.0652 -74.1463
rradius 29.5513
rwrist 4.83665
rhand -7.78411 -55.5087
rfingers 7.12502
rthumb 18.1166 -84.685
lclavicle 1.46604e-015 -1.49089e-014
lhumerus -30.1005 11.62 78.2046
lradius 18.0564
lwrist -8.82335
lhand -21.2734 -13.4251
lfingers 7.12502
lthumb 5.11037 16.4933
rfemur -22.4731 6.41623 19.678
rtibia 6.3361
rfoot -19.6978 -8.77957
rtoes -32.305
lfemur -23.4662 -8.57041 -19.4536
ltibia 9.21807
lfoot -9.98498 4.03995
ltoes -32.0242
92
root 7.12336 16.2885 31.0502 -154.111 -3.92239 178.35
lowerback -28.78 -1.86061 -6.27908
upperback -1.02428 -0.991444 0.315117
thorax 14.1864 -1.09588 3.3264
lowerneck -3.31053 -3.26859 -0.425114
upperneck 18.434 -6.18521 2.88713
head 6.23564 -3.27435 0.541593
rclavicle -2.88238e-015 9.14409e-015
rhumerus -37.5779 -23.9682 -74.1925
rradius 29.6356
rwrist 4.77709
rhand -8.02365 -53.3162
rfingers 7.12502
rthumb 17.8861 -82.5137
lclavicle -2.88238e-015 9.14409e-015
lhumerus -30.0059 11.5016 78.3576
lradius 18.2871
lwrist -8.75078
lhand -21.1686 -13.7163
lfingers 7.12502
lthumb 5.21154 16.1996
rfemur -21.9908 6.56956 19.7125
rtibia 6.14207
rfoot -19.6879 -8.99497
rtoes -32.2505
lfemur -23.0803 -8.53611 -19.4965
ltibia 9.14163
lfoot -9.98178 3.87204
ltoes -31.6409
93
root 7.12889 16.2929 31.0443 -154.313 -3.92502 178.309
lowerback -28.6231 -1.88452 -6.38384
upperback -0.962304 -0.986782 0.344565
thorax 14.1871 -1.0969 3.42147
lowerneck -3.39829 -3.22056 -0.470754
upperneck 18.4915 -6.12142 2.91299
head 6.26993 -3.24236 0.558511
rclavicle -7.03201e-015 -7.95139e-016
rhumerus -37.4972 -24.0051 -74.15
rradius 29.6741
rwrist 4.71932
rhand -7.81995 -53.7168
rfingers 7.12502
rthumb 18.0821 -82.8963
lclavicle -7.03201e-015 -7.95139e-016
lhumerus -29.9421 11.0751 78.6815
lradius 18.6426
lwrist -8.35317
lhand -21.2222 -13.6036
lfingers 7.12502
lthumb 5.1598 16.3135
rfemur -21.6977 6.44696 19.7532
rtibia 6.10462
rfoot -19.7765 -8.89825
rtoes -32.4059
lfemur -22.7731 -8.47477 -19.5707
ltibia 9.04875
lfoot -9.9651 3.80223
ltoes -31.8865
94
root 7.12882 16.2887 31.0468 -154.101 -3.84162 178.334
lowerback -28.8479 -1.8651 -6.32407
upperback -0.997871 -0.982121 0.36694
thorax 14.2494 -1.09761 3.40988
lowerneck -3.53098 -3.11273 -0.586514
upperneck 18.5155 -5.98887 3.09448
head 6.30664 -3.16851 0.640183
rclavicle -7.30534e-015 -1.17283e-014
rhumerus -37.3972 -23.9488 -74.1749
rradius 29.7538
rwrist 4.6535
rhand -7.58867 -54.4527
rfingers 7.12502
rthumb 18.3046 -83.6115
lclavicle -7.30534e-015 -1.17283e-014
lhumerus -29.8464 10.8325 78.9255
lradius 18.9317
lwrist -8.05219
lhand -21.334 -13.5278
lfingers 7.12502
lthumb 5.05189 16.3919
rfemur -22.0683 6.10063 19.8101
rtibia 6.3082
rfoot -19.7849 -8.50035
rtoes -32.7283
lfemur -23.0447 -8.44397 -19.5287
ltibia 9.09835
lfoot -9.95902 3.828
ltoes -32.0329
